HIERARCHY
ROOT Hips
{
	OFFSET -20.575302 -32.078365 87.152718
	CHANNELS 6 Xposition Yposition Zposition Zrotation Yrotation Xrotation
	JOINT Spine
	{
		OFFSET 0.000000 2.080107 8.814247
		CHANNELS 6 Xposition Yposition Zposition Zrotation Yrotation Xrotation
		JOINT Spine1
		{
			OFFSET 0.000000 0.000000 8.844139
			CHANNELS 6 Xposition Yposition Zposition Zrotation Yrotation Xrotation
			JOINT Spine2
			{
				OFFSET 0.000000 0.000002 11.682266
				CHANNELS 6 Xposition Yposition Zposition Zrotation Yrotation Xrotation
				JOINT Spine3
				{
					OFFSET 0.000000 0.000000 11.746696
					CHANNELS 6 Xposition Yposition Zposition Zrotation Yrotation Xrotation
					JOINT Neck
					{
						OFFSET 0.000000 0.000002 17.658264
						CHANNELS 6 Xposition Yposition Zposition Zrotation Yrotation Xrotation
						JOINT Neck1
						{
							OFFSET 0.000000 0.000000 5.101517
							CHANNELS 6 Xposition Yposition Zposition Zrotation Yrotation Xrotation
							JOINT Head
							{
								OFFSET 0.000000 0.000000 5.101517
								CHANNELS 6 Xposition Yposition Zposition Zrotation Yrotation Xrotation
								JOINT HeadEnd
								{
									OFFSET 0.000000 0.000002 11.655090
									CHANNELS 6 Xposition Yposition Zposition Zrotation Yrotation Xrotation
									End Site
									{
										OFFSET 0.000000 0.000000 0.100006
									}
								}
							}
						}
					}
					JOINT RightShoulder
					{
						OFFSET -2.625389 0.000002 11.175217
						CHANNELS 6 Xposition Yposition Zposition Zrotation Yrotation Xrotation
						JOINT RightArm
						{
							OFFSET 0.000000 0.000000 10.434723
							CHANNELS 6 Xposition Yposition Zposition Zrotation Yrotation Xrotation
							JOINT RightForeArm
							{
								OFFSET 0.000000 0.000002 29.628418
								CHANNELS 6 Xposition Yposition Zposition Zrotation Yrotation Xrotation
								JOINT RightHand
								{
									OFFSET 0.000000 0.000002 22.857605
									CHANNELS 6 Xposition Yposition Zposition Zrotation Yrotation Xrotation
									JOINT RightHandThumb1
									{
										OFFSET -2.867323 -2.944292 3.959564
										CHANNELS 6 Xposition Yposition Zposition Zrotation Yrotation Xrotation
										JOINT RightHandThumb2
										{
											OFFSET 0.000000 0.000000 3.350403
											CHANNELS 6 Xposition Yposition Zposition Zrotation Yrotation Xrotation
											JOINT RightHandThumb3
											{
												OFFSET 0.000000 0.000000 3.756516
												CHANNELS 6 Xposition Yposition Zposition Zrotation Yrotation Xrotation
												JOINT RightHandThumb4
												{
													OFFSET 0.000000 0.000000 3.147339
													CHANNELS 6 Xposition Yposition Zposition Zrotation Yrotation Xrotation
													End Site
													{
														OFFSET 0.000000 0.000000 0.100006
													}
												}
											}
										}
									}
									JOINT RightHandIndex1
									{
										OFFSET -0.086752 -2.345282 10.030899
										CHANNELS 6 Xposition Yposition Zposition Zrotation Yrotation Xrotation
										JOINT RightHandIndex2
										{
											OFFSET 0.000000 0.000000 4.061096
											CHANNELS 6 Xposition Yposition Zposition Zrotation Yrotation Xrotation
											JOINT RightHandIndex3
											{
												OFFSET 0.000000 0.000000 3.248871
												CHANNELS 6 Xposition Yposition Zposition Zrotation Yrotation Xrotation
												JOINT RightHandIndex4
												{
													OFFSET 0.000000 0.000000 2.639709
													CHANNELS 6 Xposition Yposition Zposition Zrotation Yrotation Xrotation
													End Site
													{
														OFFSET 0.000000 0.000000 0.100006
													}
												}
											}
										}
									}
									JOINT RightHandMiddle1
									{
										OFFSET 0.104101 -0.006767 9.502945
										CHANNELS 6 Xposition Yposition Zposition Zrotation Yrotation Xrotation
										JOINT RightHandMiddle2
										{
											OFFSET 0.000000 0.000002 4.568726
											CHANNELS 6 Xposition Yposition Zposition Zrotation Yrotation Xrotation
											JOINT RightHandMiddle3
											{
												OFFSET 0.000000 0.000000 3.654984
												CHANNELS 6 Xposition Yposition Zposition Zrotation Yrotation Xrotation
												JOINT RightHandMiddle4
												{
													OFFSET 0.000000 0.000000 2.741241
													CHANNELS 6 Xposition Yposition Zposition Zrotation Yrotation Xrotation
													End Site
													{
														OFFSET 0.000000 0.000000 0.100006
													}
												}
											}
										}
									}
									JOINT RightHandRing1
									{
										OFFSET 0.086752 2.267443 8.921707
										CHANNELS 6 Xposition Yposition Zposition Zrotation Yrotation Xrotation
										JOINT RightHandRing2
										{
											OFFSET 0.000000 0.000002 4.061096
											CHANNELS 6 Xposition Yposition Zposition Zrotation Yrotation Xrotation
											JOINT RightHandRing3
											{
												OFFSET 0.000000 0.000000 3.654984
												CHANNELS 6 Xposition Yposition Zposition Zrotation Yrotation Xrotation
												JOINT RightHandRing4
												{
													OFFSET 0.000000 0.000000 2.741241
													CHANNELS 6 Xposition Yposition Zposition Zrotation Yrotation Xrotation
													End Site
													{
														OFFSET 0.000000 0.000000 0.100006
													}
												}
											}
										}
									}
									JOINT RightHandPinky1
									{
										OFFSET -0.173504 4.467199 7.976990
										CHANNELS 6 Xposition Yposition Zposition Zrotation Yrotation Xrotation
										JOINT RightHandPinky2
										{
											OFFSET 0.000000 0.000000 3.350403
											CHANNELS 6 Xposition Yposition Zposition Zrotation Yrotation Xrotation
											JOINT RightHandPinky3
											{
												OFFSET 0.000000 0.000002 2.842758
												CHANNELS 6 Xposition Yposition Zposition Zrotation Yrotation Xrotation
												JOINT RightHandPinky4
												{
													OFFSET 0.000000 0.000000 2.639709
													CHANNELS 6 Xposition Yposition Zposition Zrotation Yrotation Xrotation
													End Site
													{
														OFFSET 0.000000 0.000000 0.100006
													}
												}
											}
										}
									}
									JOINT RightForeArmEnd
									{
										OFFSET 0.000000 0.000000 0.000000
										CHANNELS 6 Xposition Yposition Zposition Zrotation Yrotation Xrotation
										End Site
										{
											OFFSET 0.000000 0.000000 0.100006
										}
									}
								}
								JOINT RightArmEnd
								{
									OFFSET 0.000000 0.000000 0.000000
									CHANNELS 6 Xposition Yposition Zposition Zrotation Yrotation Xrotation
									End Site
									{
										OFFSET 0.000000 0.000000 0.100006
									}
								}
							}
						}
					}
					JOINT LeftShoulder
					{
						OFFSET 2.625389 0.000002 11.175217
						CHANNELS 6 Xposition Yposition Zposition Zrotation Yrotation Xrotation
						JOINT LeftArm
						{
							OFFSET 0.000000 0.000000 10.813629
							CHANNELS 6 Xposition Yposition Zposition Zrotation Yrotation Xrotation
							JOINT LeftForeArm
							{
								OFFSET 0.000000 0.000002 28.724777
								CHANNELS 6 Xposition Yposition Zposition Zrotation Yrotation Xrotation
								JOINT LeftHand
								{
									OFFSET 0.644384 0.328873 25.716171
									CHANNELS 6 Xposition Yposition Zposition Zrotation Yrotation Xrotation
									JOINT LeftHandThumb1
									{
										OFFSET 2.867323 -2.944290 3.959564
										CHANNELS 6 Xposition Yposition Zposition Zrotation Yrotation Xrotation
										JOINT LeftHandThumb2
										{
											OFFSET 0.000000 0.000000 3.350403
											CHANNELS 6 Xposition Yposition Zposition Zrotation Yrotation Xrotation
											JOINT LeftHandThumb3
											{
												OFFSET 0.000000 0.000000 3.756516
												CHANNELS 6 Xposition Yposition Zposition Zrotation Yrotation Xrotation
												JOINT LeftHandThumb4
												{
													OFFSET 0.000000 0.000000 3.100006
													CHANNELS 6 Xposition Yposition Zposition Zrotation Yrotation Xrotation
													End Site
													{
														OFFSET 0.000000 0.000000 0.100006
													}
												}
											}
										}
									}
									JOINT LeftHandIndex1
									{
										OFFSET 0.086752 -2.345280 10.030899
										CHANNELS 6 Xposition Yposition Zposition Zrotation Yrotation Xrotation
										JOINT LeftHandIndex2
										{
											OFFSET 0.000000 0.000000 4.061096
											CHANNELS 6 Xposition Yposition Zposition Zrotation Yrotation Xrotation
											JOINT LeftHandIndex3
											{
												OFFSET 0.000000 0.000000 3.248871
												CHANNELS 6 Xposition Yposition Zposition Zrotation Yrotation Xrotation
												JOINT LeftHandIndex4
												{
													OFFSET 0.000000 0.000000 2.639709
													CHANNELS 6 Xposition Yposition Zposition Zrotation Yrotation Xrotation
													End Site
													{
														OFFSET 0.000000 0.000000 0.100006
													}
												}
											}
										}
									}
									JOINT LeftHandMiddle1
									{
										OFFSET -0.104101 -0.006767 9.502945
										CHANNELS 6 Xposition Yposition Zposition Zrotation Yrotation Xrotation
										JOINT LeftHandMiddle2
										{
											OFFSET 0.000000 0.000002 4.568726
											CHANNELS 6 Xposition Yposition Zposition Zrotation Yrotation Xrotation
											JOINT LeftHandMiddle3
											{
												OFFSET 0.000000 0.000000 3.654984
												CHANNELS 6 Xposition Yposition Zposition Zrotation Yrotation Xrotation
												JOINT LeftHandMiddle4
												{
													OFFSET 0.000000 0.000000 2.741241
													CHANNELS 6 Xposition Yposition Zposition Zrotation Yrotation Xrotation
													End Site
													{
														OFFSET 0.000000 0.000000 0.100006
													}
												}
											}
										}
									}
									JOINT LeftHandRing1
									{
										OFFSET -0.086752 2.267443 8.921707
										CHANNELS 6 Xposition Yposition Zposition Zrotation Yrotation Xrotation
										JOINT LeftHandRing2
										{
											OFFSET 0.000000 0.000002 4.061096
											CHANNELS 6 Xposition Yposition Zposition Zrotation Yrotation Xrotation
											JOINT LeftHandRing3
											{
												OFFSET 0.000000 0.000000 3.654984
												CHANNELS 6 Xposition Yposition Zposition Zrotation Yrotation Xrotation
												JOINT LeftHandRing4
												{
													OFFSET 0.000000 0.000000 2.741241
													CHANNELS 6 Xposition Yposition Zposition Zrotation Yrotation Xrotation
													End Site
													{
														OFFSET 0.000000 0.000000 0.100006
													}
												}
											}
										}
									}
									JOINT LeftHandPinky1
									{
										OFFSET 0.173504 4.467199 7.976990
										CHANNELS 6 Xposition Yposition Zposition Zrotation Yrotation Xrotation
										JOINT LeftHandPinky2
										{
											OFFSET 0.000000 0.000002 3.350403
											CHANNELS 6 Xposition Yposition Zposition Zrotation Yrotation Xrotation
											JOINT LeftHandPinky3
											{
												OFFSET 0.000000 0.000000 2.842758
												CHANNELS 6 Xposition Yposition Zposition Zrotation Yrotation Xrotation
												JOINT LeftHandPinky4
												{
													OFFSET 0.000000 0.000000 2.639709
													CHANNELS 6 Xposition Yposition Zposition Zrotation Yrotation Xrotation
													End Site
													{
														OFFSET 0.000000 0.000000 0.100006
													}
												}
											}
										}
									}
									JOINT LeftForeArmEnd
									{
										OFFSET 0.000000 0.000000 0.000000
										CHANNELS 6 Xposition Yposition Zposition Zrotation Yrotation Xrotation
										End Site
										{
											OFFSET 0.000000 0.000000 0.100006
										}
									}
								}
								JOINT LeftArmEnd
								{
									OFFSET 0.000000 0.000000 0.000000
									CHANNELS 6 Xposition Yposition Zposition Zrotation Yrotation Xrotation
									End Site
									{
										OFFSET 0.000000 0.000000 0.100006
									}
								}
							}
						}
					}
				}
			}
		}
	}
	JOINT RightUpLeg
	{
		OFFSET -11.289944 0.000000 0.000000
		CHANNELS 6 Xposition Yposition Zposition Zrotation Yrotation Xrotation
		JOINT RightLeg
		{
			OFFSET 0.000000 -0.000004 -38.200321
			CHANNELS 6 Xposition Yposition Zposition Zrotation Yrotation Xrotation
			JOINT RightFoot
			{
				OFFSET 0.000000 -0.000004 -39.900856
				CHANNELS 6 Xposition Yposition Zposition Zrotation Yrotation Xrotation
				JOINT RightToeBase
				{
					OFFSET 0.000000 -15.261639 0.000001
					CHANNELS 6 Xposition Yposition Zposition Zrotation Yrotation Xrotation
					JOINT RightToeBaseEnd
					{
						OFFSET 0.000000 -7.370708 0.000000
						CHANNELS 6 Xposition Yposition Zposition Zrotation Yrotation Xrotation
						End Site
						{
							OFFSET 0.000000 0.000000 0.100000
						}
					}
				}
				JOINT RightLegEnd
				{
					OFFSET 0.000000 0.000000 0.000000
					CHANNELS 6 Xposition Yposition Zposition Zrotation Yrotation Xrotation
					End Site
					{
						OFFSET 0.000000 0.000000 0.100000
					}
				}
			}
			JOINT RightUpLegEnd
			{
				OFFSET 0.000000 0.000000 0.000000
				CHANNELS 6 Xposition Yposition Zposition Zrotation Yrotation Xrotation
				End Site
				{
					OFFSET 0.000000 0.000000 0.099998
				}
			}
		}
	}
	JOINT LeftUpLeg
	{
		OFFSET 11.315661 0.000000 0.000000
		CHANNELS 6 Xposition Yposition Zposition Zrotation Yrotation Xrotation
		JOINT LeftLeg
		{
			OFFSET 0.000000 -0.000004 -38.200321
			CHANNELS 6 Xposition Yposition Zposition Zrotation Yrotation Xrotation
			JOINT LeftFoot
			{
				OFFSET 0.000000 -0.000004 -39.900856
				CHANNELS 6 Xposition Yposition Zposition Zrotation Yrotation Xrotation
				JOINT LeftToeBase
				{
					OFFSET 0.000000 -15.261639 0.000001
					CHANNELS 6 Xposition Yposition Zposition Zrotation Yrotation Xrotation
					JOINT LeftToeBaseEnd
					{
						OFFSET 0.000000 -7.539997 0.000000
						CHANNELS 6 Xposition Yposition Zposition Zrotation Yrotation Xrotation
						End Site
						{
							OFFSET 0.000000 0.000000 0.100000
						}
					}
				}
				JOINT LeftLegEnd
				{
					OFFSET 0.000000 0.000000 0.000000
					CHANNELS 6 Xposition Yposition Zposition Zrotation Yrotation Xrotation
					End Site
					{
						OFFSET 0.000000 0.000000 0.100000
					}
				}
			}
			JOINT LeftUpLegEnd
			{
				OFFSET 0.000000 0.000000 0.000000
				CHANNELS 6 Xposition Yposition Zposition Zrotation Yrotation Xrotation
				End Site
				{
					OFFSET 0.000000 0.000000 0.099998
				}
			}
		}
	}
}
MOTION
Frames: 2
Frame Time: 0.016667
-2.745010 -86.026764 82.777435 52.902885 -2.720576 -14.002202 -0.000003 2.080098 8.814232 1.658318 1.693020 5.339131 0.000009 0.000005 8.844151 -2.410166 -6.699596 12.899023 -0.000001 -0.000002 11.682256 0.562505 4.399197 14.262357 0.000007 0.000006 11.746698 -0.103086 0.931360 -0.920759 0.000004 0.000006 17.658264 8.705826 -1.095937 8.685764 0.000010 0.000008 5.101526 5.569876 3.664599 -9.843430 0.000008 -0.000001 5.101512 3.265399 1.318941 -23.919370 0.000010 0.000010 11.655075 0.000000 -0.000000 -0.000001 -2.625389 0.000000 11.175220 12.902062 -92.738096 -1.023050 -0.000017 0.000004 10.434724 -15.189883 -60.314074 36.396487 -0.000000 0.000004 29.628431 26.694635 -1.319027 110.901153 -0.000026 -0.000006 22.857586 71.758835 36.489637 29.065341 -2.867328 -2.944293 3.959555 33.290335 -28.737580 35.568497 0.000009 0.000008 3.350414 -37.740139 9.253314 -63.358775 0.000010 -0.000025 3.756518 -25.360837 11.059422 -43.437852 -0.000006 -0.000005 3.147340 0.000001 0.000000 -0.000002 -0.086772 -2.345289 10.030914 -120.717214 -68.598404 125.537948 0.000005 -0.000003 4.061092 -14.973074 -69.549282 22.140640 -0.000017 0.000001 3.248875 -15.473070 -69.549262 22.140623 -0.000017 -0.000007 2.639693 0.000001 -0.000001 0.000001 0.104085 -0.006768 9.502941 -133.680490 -71.581373 142.085352 0.000001 0.000000 4.568734 -6.242559 -71.984463 9.273425 -0.000012 0.000001 3.654991 -6.742558 -71.984456 9.273426 0.000007 0.000003 2.741257 -0.000000 0.000001 -0.000001 0.086726 2.267434 8.921699 -166.417122 -68.303107 178.633872 -0.000002 0.000001 4.061069 10.687121 -76.524217 -14.787530 -0.000007 -0.000001 3.654995 11.687085 -76.524176 -14.788504 0.000007 0.000001 2.741242 0.000000 0.000001 -0.000001 -0.173519 4.467199 7.976996 -7.426835 -115.231520 22.925354 -0.000051 -0.000002 3.350407 29.544400 -73.608744 -41.362512 -0.000030 0.000004 2.842738 31.544255 -73.608723 -41.362376 0.000012 0.000001 2.639709 0.000000 0.000000 0.000000 -0.000012 -0.000003 -0.000016 0.000005 -0.000002 0.000000 -0.000005 0.000001 0.000001 0.000003 0.000002 0.000000 2.625407 -0.000002 11.175220 -11.009573 92.444923 -1.491732 0.000020 -0.000013 10.813649 26.546184 60.646247 45.349301 -0.000002 0.000002 28.724766 -26.093394 2.267283 113.321882 0.644383 0.328857 25.716158 -97.008965 -24.797029 13.909556 2.867335 -2.944287 3.959572 -32.925893 27.761838 36.871233 0.000013 0.000032 3.350404 35.734990 -9.847259 -60.076780 0.000009 -0.000008 3.756514 23.901653 -10.991226 -41.110803 -0.000018 0.000003 3.100005 -0.000000 -0.000001 0.000001 0.086762 -2.345269 10.030903 168.377209 82.566298 159.537646 0.000022 0.000009 4.061095 -12.862500 67.538447 -19.873245 0.000010 0.000000 3.248868 -13.362614 67.538666 -19.873416 0.000004 -0.000008 2.639724 -0.000000 -0.000001 0.000000 -0.104086 -0.006764 9.502947 145.415793 78.726038 142.375826 -0.000000 0.000006 4.568727 -5.041974 69.368938 -8.001492 0.000005 0.000004 3.655007 -5.541959 69.368904 -8.001456 -0.000006 0.000001 2.741256 -0.000000 -0.000001 0.000001 -0.086735 2.267449 8.921695 135.975543 69.411552 140.628267 0.000033 0.000006 4.061087 7.708205 73.220311 11.703069 0.000012 -0.000006 3.654984 8.708238 73.220297 11.703095 -0.000008 -0.000012 2.741256 0.000002 -0.000002 0.000000 0.173514 4.467195 7.976999 120.128957 63.805694 132.589230 -0.000005 -0.000005 3.350389 22.337480 70.737530 33.795540 -0.000011 0.000001 2.842754 24.337393 70.737503 33.795469 0.000005 -0.000005 2.639694 -0.000001 0.000000 0.000000 0.000002 0.000001 0.000029 0.000000 -0.000000 0.000003 -0.000001 -0.000006 -0.000014 0.000003 0.000002 -0.000001 -11.289940 -0.000010 0.000008 4.110225 14.414764 -8.551840 0.000003 0.000006 -38.200310 -1.055210 0.806157 37.351613 0.000006 -0.000007 -39.900852 -7.545413 -7.326186 14.656109 0.000013 -15.261645 0.000004 -0.836963 0.606381 -28.453832 0.000004 -7.370703 -0.000000 -0.000003 0.000000 -0.000001 0.000011 -0.000003 0.000001 -0.000002 0.000001 0.000002 -0.000000 -0.000001 0.000003 -0.000000 -0.000000 0.000000 11.315665 -0.000011 0.000003 8.172430 -13.365742 9.793835 -0.000009 -0.000012 -38.200317 1.737275 -0.911560 27.655965 -0.000005 -0.000005 -39.900856 13.459776 13.629300 10.500279 0.000000 -15.261642 0.000003 -0.592510 -0.167888 -29.318713 -0.000005 -7.540001 0.000001 -0.000000 0.000000 0.000000 -0.000001 -0.000004 0.000000 -0.000000 -0.000000 -0.000001 -0.000004 -0.000004 0.000001 -0.000001 0.000001 -0.000001 
-2.746197 -85.979416 82.831223 53.748493 -2.772781 -13.949376 0.000001 2.080106 8.814233 1.637522 1.747113 5.272001 0.000007 -0.000005 8.844132 -2.493708 -6.909097 13.036669 -0.000001 0.000000 11.682269 0.704655 4.751492 14.177337 -0.000007 0.000001 11.746702 -0.074857 0.921044 -1.001886 -0.000001 0.000001 17.658285 8.631971 -1.148478 8.851246 0.000015 0.000001 5.101515 5.571168 3.643036 -9.726218 -0.000000 0.000002 5.101538 3.280587 1.317511 -23.922591 -0.000001 0.000005 11.655107 0.000000 -0.000000 -0.000001 -2.625401 0.000003 11.175221 13.260932 -92.539235 -1.106695 -0.000031 -0.000010 10.434722 -12.199399 -60.426281 35.936740 -0.000000 0.000007 29.628428 26.535365 -1.274493 112.160107 0.000002 -0.000004 22.857613 71.496733 36.511247 29.576638 -2.867337 -2.944282 3.959552 33.290332 -28.737560 35.568494 0.000013 -0.000011 3.350400 -37.740152 9.253285 -63.358761 0.000005 -0.000010 3.756503 -25.360822 11.059424 -43.437852 0.000000 -0.000011 3.147340 -0.000002 0.000001 -0.000001 -0.086782 -2.345289 10.030894 -122.541462 -68.181346 126.952385 0.000020 -0.000000 4.061089 -15.540313 -70.023776 22.745112 0.000008 0.000000 3.248908 -16.040301 -70.023741 22.745076 0.000002 -0.000009 2.639708 0.000000 -0.000000 0.000003 0.104092 -0.006774 9.502932 -135.438539 -71.036003 143.424383 -0.000010 0.000002 4.568723 -6.528962 -72.510634 9.574155 0.000002 0.000003 3.654988 -7.028964 -72.510600 9.574137 0.000002 0.000000 2.741241 0.000001 0.000000 0.000001 0.086724 2.267428 8.921713 -167.064747 -67.479537 178.791622 0.000008 -0.000005 4.061087 11.400210 -77.124379 -15.519891 0.000006 -0.000000 3.655010 12.400243 -77.124392 -15.519916 0.000004 -0.000000 2.741273 0.000000 0.000001 -0.000001 -0.173518 4.467196 7.976973 -7.406624 -116.180316 22.318866 0.000014 0.000000 3.350390 31.294380 -74.143370 -43.184090 -0.000022 0.000008 2.842741 33.294228 -74.143390 -43.183973 -0.000003 0.000000 2.639724 0.000000 -0.000002 0.000000 -0.000015 -0.000006 0.000000 0.000002 -0.000000 -0.000000 0.000008 0.000002 0.000014 -0.000001 0.000000 0.000003 2.625384 -0.000003 11.175215 -11.310424 92.339691 -1.464618 0.000002 0.000009 10.813648 25.604255 60.863051 46.294592 0.000006 -0.000004 28.724751 -26.402615 2.211236 114.142324 0.644387 0.328885 25.716196 -95.323752 -24.756869 13.877596 2.867319 -2.944292 3.959593 -32.995363 27.956816 36.610934 -0.000011 0.000028 3.350405 36.138999 -9.737557 -60.735272 0.000009 0.000011 3.756486 24.193213 -11.009511 -41.576017 -0.000027 0.000000 3.099991 -0.000000 0.000002 0.000000 0.086773 -2.345278 10.030917 169.085854 82.167278 160.475336 0.000010 -0.000009 4.061099 -13.094108 67.780386 -20.123687 0.000015 -0.000004 3.248875 -13.594106 67.780393 -20.123655 0.000009 -0.000004 2.639708 0.000000 -0.000002 0.000002 -0.104103 -0.006764 9.502958 146.571953 78.401447 143.892510 0.000001 -0.000010 4.568733 -5.146459 69.627351 -8.113042 0.000010 -0.000004 3.655011 -5.646454 69.627379 -8.112431 0.000005 0.000004 2.741211 -0.000001 0.000002 0.000000 -0.086753 2.267439 8.921711 136.605914 69.188805 141.659489 0.000037 0.000006 4.061090 7.881904 73.458726 11.884381 0.000036 -0.000009 3.654983 8.881896 73.458726 11.884232 -0.000005 -0.000002 2.741241 0.000001 0.000000 -0.000000 0.173486 4.467190 7.976996 120.509877 63.727632 133.367735 -0.000011 0.000001 3.350400 22.660073 70.894918 34.137118 -0.000010 -0.000012 2.842763 24.659688 70.894987 34.136824 0.000002 0.000006 2.639725 0.000002 0.000000 0.000000 -0.000012 -0.000003 0.000047 0.000000 0.000001 -0.000002 0.000002 0.000009 0.000015 -0.000000 -0.000002 -0.000001 -11.289946 -0.000001 0.000005 3.556982 14.649970 -8.362305 -0.000004 -0.000010 -38.200317 -1.056927 0.804806 37.178946 0.000006 -0.000008 -39.900860 -7.796543 -7.435525 14.665898 0.000014 -15.261656 0.000010 -0.829868 0.609120 -28.409301 -0.000000 -7.370704 -0.000001 -0.000001 0.000000 -0.000001 0.000014 -0.000016 0.000005 0.000001 0.000000 0.000001 0.000007 -0.000012 0.000004 0.000001 0.000001 0.000002 11.315658 -0.000010 0.000009 7.936847 -13.259462 9.544229 -0.000007 -0.000011 -38.200317 1.738454 -0.906517 27.502235 0.000000 -0.000007 -39.900856 12.986876 13.381964 10.621520 0.000003 -15.261641 0.000006 -0.599642 -0.159384 -29.305548 -0.000002 -7.540001 0.000001 0.000001 0.000000 0.000000 0.000003 -0.000004 0.000003 0.000000 0.000000 0.000003 -0.000000 -0.000012 0.000007 0.000002 -0.000001 0.000001 
